# xmcd
#
# Track frame offsets: 
#        150
#        18760
#        36850
#        53050
#        64085
#        80800
#        98862
#        113727
#        125186
#        147205
#        172028
#        183364
#        201969
#        208277
#
# Disc length: 3019 seconds
#
# Revision: 5
# Processed by: cddbd v1.5.2PL0 Copyright (c) Steve Scherf et al.
# Submitted via: ExactAudioCopy v0.99pb4
#
DISCID=cf0bc90e
DTITLE=Stare Dobre Malzenstwo - Kino objazdowe CD1 Samotni jak gwiazdy
DYEAR=2003
DGENRE=Acoustic
TTITLE0=Zimowy taniec
TTITLE1=List deszczowy
TTITLE2=Erotyk z jaskolkami
TTITLE3=Dziewczynka z konwaliami
TTITLE4=Aniol polski
TTITLE5=Samotni jak gwiazdy
TTITLE6=Dworzec Glowny
TTITLE7=Tekturowa krolowa
TTITLE8=Dziwne dzielnice z ksiezycem
TTITLE9=Piosenka zolnierzy
TTITLE10=Niebieski cyrkiel
TTITLE11=Ulica Wszystkich Swietych
TTITLE12=Wiek z wiekiem
TTITLE13=Makatka na pamiec
EXTD=ID3G:   0 YEAR: 2003
EXTT0=
EXTT1=
EXTT2=
EXTT3=
EXTT4=
EXTT5=
EXTT6=
EXTT7=
EXTT8=
EXTT9=
EXTT10=
EXTT11=
EXTT12=
EXTT13=
PLAYORDER=
